<svg width="58" height="58" viewBox="0 0 58 58" fill="none" xmlns="http://www.w3.org/2000/svg">
<g filter="url(#filter0_d_14_25)">
<circle cx="29" cy="25" r="25" fill="#393939" fill-opacity="0.51" shape-rendering="crispEdges"/>
</g>
<path d="M39 15C38.22 15.5787 36.655 16.3674 35.735 16.5949C35.708 16.6036 35.686 16.6149 35.66 16.6236C34.847 15.6212 33.733 15 32.5 15C30.015 15 28 17.5186 28 20.6246C28 20.7884 27.989 21.0896 28 21.2496C24.647 21.2496 22.095 19.0547 20.265 16.2499C20.066 16.8749 19.979 17.8623 19.979 18.7898C19.979 20.5409 21.074 22.2608 22.779 23.327C22.465 23.4282 22.119 23.5007 21.759 23.5007C21.178 23.5007 20.563 23.3095 20 22.7295C20 22.7508 20 22.7708 20 22.7933C20 25.2406 22.078 26.9068 23.926 27.3705C23.551 27.6467 22.795 27.6742 22.426 27.6742C22.166 27.6742 21.246 27.5255 21 27.468C21.514 29.4741 23.368 30.6015 25.135 30.6415C23.753 31.9964 22.794 32.4989 19.964 32.4989H19C20.788 33.9313 23.065 35 25.347 35C32.777 35 37 27.9217 37 21.2496C37 21.1421 36.998 20.9171 36.995 20.6909C36.995 20.6684 37 20.6471 37 20.6246C37 20.5909 36.992 20.5584 36.992 20.5247C36.989 20.3547 36.986 20.1959 36.983 20.1134C37.773 19.401 38.458 18.5123 39 17.4998C38.275 17.9023 37.497 18.1723 36.68 18.2948C37.514 17.6698 38.699 16.1799 39 15Z" fill="#00B2FF"/>
<defs>
<filter id="filter0_d_14_25" x="0" y="0" width="58" height="58" filterUnits="userSpaceOnUse" color-interpolation-filters="sRGB">
<feFlood flood-opacity="0" result="BackgroundImageFix"/>
<feColorMatrix in="SourceAlpha" type="matrix" values="0 0 0 0 0 0 0 0 0 0 0 0 0 0 0 0 0 0 127 0" result="hardAlpha"/>
<feOffset dy="4"/>
<feGaussianBlur stdDeviation="2"/>
<feComposite in2="hardAlpha" operator="out"/>
<feColorMatrix type="matrix" values="0 0 0 0 1 0 0 0 0 1 0 0 0 0 1 0 0 0 0.25 0"/>
<feBlend mode="normal" in2="BackgroundImageFix" result="effect1_dropShadow_14_25"/>
<feBlend mode="normal" in="SourceGraphic" in2="effect1_dropShadow_14_25" result="shape"/>
</filter>
</defs>
</svg>
